<?xml version="1.0" encoding="UTF-8"?>
<!DOCTYPE svg PUBLIC "-//W3C//DTD SVG 1.1//EN" "http://www.w3.org/Graphics/SVG/1.1/DTD/svg11.dtd">
<!-- Creator: CorelDRAW X8 -->
<svg xmlns="http://www.w3.org/2000/svg" xml:space="preserve" width="7.63999in" height="7.63999in" version="1.1" style="shape-rendering:geometricPrecision; text-rendering:geometricPrecision; image-rendering:optimizeQuality; fill-rule:evenodd; clip-rule:evenodd"
viewBox="0 0 7640 7640"
 xmlns:xlink="http://www.w3.org/1999/xlink">
 <defs>
  <style type="text/css">
   <![CDATA[
    .fil0 {fill:#FE4A49}
   ]]>
  </style>
 </defs>
 <g id="Layer_x0020_1">
  <metadata id="CorelCorpID_0Corel-Layer"/>
  <g id="_2800532358304">
   <path class="fil0" d="M2432 2924c-135,-136 -135,-356 0,-492 136,-135 356,-135 491,0l899 899 898 -898c135,-135 355,-135 491,0 135,136 135,356 0,491l-898 898 897 897c136,136 136,356 0,491 -135,136 -355,136 -491,0l-897 -897 -897 898c-136,135 -356,135 -492,0 -135,-136 -135,-356 0,-492l898 -897 -899 -898z"/>
   <path class="fil0" d="M7639 3820c0,2109 -1710,3819 -3819,3819 -2109,0 -3819,-1710 -3819,-3819 0,-2109 1710,-3819 3819,-3819 2109,0 3819,1710 3819,3819zm-6942 0c0,1725 1398,3123 3123,3123 1725,0 3123,-1398 3123,-3123 0,-1725 -1398,-3123 -3123,-3123 -1725,0 -3123,1398 -3123,3123z"/>
  </g>
 </g>
</svg>
